<svg xmlns="http://www.w3.org/2000/svg" viewBox="0 0 100 100" fill="none">
  <!-- 背景 -->
  <rect width="100" height="100" rx="20" fill="url(#gradient)" />

  <!-- トロフィーアイコン -->
  <path
    d="M50 30c-6 0-10 4-10 10v5h20v-5c0-6-4-10-10-10zM35 45v5c0 8 6 15 15 15s15-7 15-15v-5H35zM29 50c-4 0-6-3-6-6v-3h6v3h6v6h-6zM70 50c4 0 6-3 6-6v-3h-6v3h-6v6h6zM40 70h20v5H40z"
    fill="#FFF"
  />

  <!-- グラデーション定義 -->
  <defs>
    <linearGradient id="gradient" x1="0" y1="0" x2="1" y2="1" gradientUnits="userSpaceOnUse">
      <stop stop-color="#FFD700" offset="0%" />
      <stop stop-color="#FF8C00" offset="100%" />
    </linearGradient>
  </defs>
</svg>
